<?xml version="1.0" encoding="UTF-8"?>
<svg version="1.1" xmlns="http://www.w3.org/2000/svg" width="512" height="512">
<path d="M0 0 C0.81730591 -0.00453111 1.63461182 -0.00906223 2.47668457 -0.01373065 C5.21888864 -0.02640417 7.96089486 -0.02475239 10.703125 -0.02310181 C12.66764583 -0.02908511 14.63216431 -0.03589019 16.59667969 -0.04345703 C21.93539666 -0.06114178 27.27404954 -0.06581338 32.61279297 -0.0670886 C37.06633178 -0.06898631 41.51985562 -0.07634215 45.97338867 -0.08343279 C56.47705849 -0.09972282 66.98069401 -0.10460108 77.484375 -0.10317993 C88.3294287 -0.10197748 99.17428371 -0.12309855 110.01928711 -0.15466726 C119.3238214 -0.18078936 128.62829063 -0.19154898 137.93286133 -0.19026911 C143.49307232 -0.1897584 149.05310669 -0.19550236 154.61328125 -0.21662521 C159.84015868 -0.23593982 165.06668971 -0.23617865 170.2935791 -0.22159195 C172.21407576 -0.21949449 174.13459373 -0.22426016 176.05505371 -0.23631287 C178.6725307 -0.25167889 181.28880025 -0.24251528 183.90625 -0.22705078 C184.67005981 -0.23733791 185.43386963 -0.24762503 186.2208252 -0.25822389 C189.69606433 -0.21270282 191.62276485 0.02411568 194.45605469 2.11083031 C195.953125 4.26742554 195.953125 4.26742554 195.953125 7.26742554 C200.243125 7.26742554 204.533125 7.26742554 208.953125 7.26742554 C209.283125 5.61742554 209.613125 3.96742554 209.953125 2.26742554 C213.03909773 0.21011038 213.72620882 0.01224607 217.22167969 -0.02310181 C218.07977234 -0.03586151 218.93786499 -0.04862122 219.82196045 -0.06176758 C221.20946503 -0.06510605 221.20946503 -0.06510605 222.625 -0.06851196 C223.58077942 -0.07516876 224.53655884 -0.08182556 225.52130127 -0.08868408 C227.54543127 -0.09881319 229.56959468 -0.10350102 231.59375 -0.10317993 C234.67765095 -0.10753846 237.76010371 -0.14381484 240.84375 -0.18179321 C242.81249512 -0.18766438 244.78124702 -0.19163177 246.75 -0.19351196 C248.12535919 -0.21506851 248.12535919 -0.21506851 249.52850342 -0.23706055 C255.53573964 -0.19460732 259.02340435 0.78588037 263.953125 4.26742554 C268.02826533 8.56284372 269.88350471 12.14400669 270.078125 18.07992554 C270.036875 19.13180054 269.995625 20.18367554 269.953125 21.26742554 C271.066875 21.10242554 272.180625 20.93742554 273.328125 20.76742554 C295.46799883 18.09670649 316.53469086 24.64524349 334.140625 38.07992554 C351.74064514 52.77946236 361.43503688 72.20059175 363.703125 94.82992554 C365.08686429 117.95095106 357.22936061 138.96773358 341.953125 156.26742554 C326.60044097 172.44124177 306.85942966 180.01669723 284.95703125 181.23226929 C273.85049458 181.49144909 263.29225833 179.30125407 252.953125 175.26742554 C252.59541016 176.53392944 252.59541016 176.53392944 252.23046875 177.82601929 C250.79291734 181.69905536 248.82209581 184.93588318 246.515625 188.32992554 C246.07822998 188.97896851 245.64083496 189.62801147 245.19018555 190.29672241 C240.56872023 197.02540557 235.40620819 203.20278162 229.953125 209.26742554 C229.37304688 209.91969116 228.79296875 210.57195679 228.1953125 211.24398804 C221.74705602 218.08108411 213.75176067 224.06833509 205.953125 229.26742554 C206.53084152 229.27107117 207.10855804 229.2747168 207.70378113 229.2784729 C213.72260612 229.3203183 219.74067 229.38967796 225.7590332 229.47494507 C228.00439844 229.50315195 230.24986291 229.52436786 232.49536133 229.53842163 C235.72528889 229.55985446 238.95402356 229.60650825 242.18359375 229.65805054 C243.18585495 229.65927917 244.18811615 229.66050781 245.2207489 229.66177368 C249.57350416 229.75302456 252.2807999 229.88856049 256.1262207 232.05551147 C257.953125 234.26742554 257.953125 234.26742554 257.953125 238.26742554 C261.913125 237.93742554 265.873125 237.60742554 269.953125 237.26742554 C270.613125 235.61742554 271.273125 233.96742554 271.953125 232.26742554 C275.33794281 229.62226602 279.30031018 229.98483342 283.41210938 230.00863647 C284.52988518 230.00337952 284.52988518 230.00337952 285.67024231 229.99801636 C288.12921512 229.98922635 290.58789935 229.99503848 293.046875 230.00180054 C294.75793513 230.0004531 296.46899489 229.99851191 298.18005371 229.9960022 C301.76444141 229.99305464 305.34872937 229.99733674 308.93310547 230.00668335 C313.52654714 230.01807768 318.11975508 230.01151624 322.71318817 229.99953842 C326.24592854 229.99230989 329.77861355 229.99461232 333.31135559 229.99979401 C335.0050306 230.00112775 336.69871063 229.99949241 338.39237976 229.9948349 C340.75976877 229.98975335 343.12677975 229.99750265 345.49414062 230.00863647 C346.19348221 230.00458801 346.89282379 230.00053955 347.61335754 229.99636841 C351.20977385 230.02768755 353.94437634 230.19983717 356.953125 232.26742554 C359.85111211 236.90420491 359.28379262 242.48428219 359.265625 247.76742554 C359.28173828 248.70457397 359.29785156 249.64172241 359.31445312 250.60726929 C359.31509766 251.51605835 359.31574219 252.42484741 359.31640625 253.36117554 C359.32087769 254.59384155 359.32087769 254.59384155 359.32543945 255.85140991 C358.82878085 259.07431715 357.99242737 260.69589083 355.953125 263.26742554 C353.25043877 264.21668571 350.94405545 264.81659231 348.15625 265.30941772 C347.36301331 265.46715038 346.56977661 265.62488304 345.75250244 265.78739548 C344.04083889 266.1249613 342.327244 266.45284912 340.61206055 266.77204895 C337.97731214 267.26291932 335.3489305 267.7795899 332.72070312 268.3041687 C327.05351398 269.42959461 321.37879459 270.51384437 315.703125 271.59555054 C313.62610485 271.99321802 311.54911983 272.39106901 309.47216797 272.78909302 C305.16308053 273.61428444 300.85365132 274.43765844 296.54394531 275.25961304 C291.01302617 276.3145797 285.4829 277.37363899 279.95300293 278.43394852 C275.68463702 279.25201535 271.41592375 280.06825702 267.14709473 280.8839035 C265.10557527 281.27414891 263.06415219 281.66489887 261.02282715 282.05615997 C258.19004088 282.5987787 255.35681006 283.13901061 252.5234375 283.67855835 C251.67993744 283.84058746 250.83643738 284.00261658 249.96737671 284.16955566 C244.18187192 285.26742554 244.18187192 285.26742554 241.953125 285.26742554 C241.97407227 286.00380249 241.99501953 286.74017944 242.01660156 287.49887085 C242.09979644 290.83824996 242.15179657 294.17741103 242.203125 297.51742554 C242.23664063 298.67629272 242.27015625 299.83515991 242.3046875 301.02914429 C242.31757813 302.14418335 242.33046875 303.25922241 242.34375 304.40805054 C242.36469727 305.43446655 242.38564453 306.46088257 242.40722656 307.5184021 C241.80384384 311.17113837 240.9408347 312.07845932 237.953125 314.26742554 C234.93277414 314.86558212 231.9518711 314.80689436 228.88122559 314.77536011 C227.48988285 314.78472005 227.48988285 314.78472005 226.07043219 314.79426908 C222.95490117 314.81025432 219.84014653 314.79757303 216.72460938 314.78500366 C214.49408002 314.79042231 212.26355425 314.79754351 210.03303528 314.8062439 C203.96905846 314.82451063 197.90535323 314.81739576 191.84137154 314.80472755 C185.5024351 314.79461729 179.16352229 314.80398774 172.82458496 314.81027222 C161.49602939 314.81802114 150.16761203 314.80557188 138.83908409 314.78523487 C128.56600122 314.76736361 118.29309914 314.77046765 108.02001953 314.78890991 C96.09241118 314.81031234 84.16491269 314.81828602 72.23727846 314.80646086 C65.92256102 314.80021702 59.60796816 314.79941481 53.29325867 314.81260681 C47.35721597 314.82414098 41.4215155 314.81618382 35.48550987 314.79302979 C33.30378984 314.78772971 31.12204113 314.78927853 28.94033241 314.79808044 C25.96817105 314.80896803 22.99711484 314.79535417 20.02502441 314.77536011 C18.72172629 314.78874444 18.72172629 314.78874444 17.3920989 314.80239916 C11.57937169 314.72624951 11.57937169 314.72624951 8.41451263 312.40749359 C6.4895779 309.58860336 6.49320577 307.8034677 6.5625 304.40805054 C6.57249023 303.40290405 6.58248047 302.39775757 6.59277344 301.3621521 C6.62918945 300.09339233 6.66560547 298.82463257 6.703125 297.51742554 C6.74909798 295.33223271 6.79360059 293.14700863 6.83691406 290.96176147 C6.87565104 289.0636495 6.91438802 287.16553752 6.953125 285.26742554 C6.31864944 285.15589142 5.68417389 285.0443573 5.0304718 284.92944336 C-15.51516131 281.30884092 -36.02677567 277.51452942 -56.52709961 273.64633179 C-60.11873505 272.96906187 -63.71121117 272.29652289 -67.30444336 271.6277771 C-71.72121035 270.80572056 -76.13642148 269.97575384 -80.55063438 269.14009476 C-82.21060448 268.82718464 -83.87109157 268.51700315 -85.53211403 268.20972824 C-87.83777686 267.78261743 -90.14129311 267.34532697 -92.44458008 266.90560913 C-93.11413223 266.78398911 -93.78368439 266.66236908 -94.473526 266.5370636 C-99.74030151 265.51415843 -105.21805946 264.23806758 -108.9609375 260.20492554 C-110.55878013 255.88270375 -110.48149461 251.83826225 -110.421875 247.26742554 C-110.43347656 246.37797241 -110.44507812 245.48851929 -110.45703125 244.57211304 C-110.43515124 239.68557727 -110.30234349 236.18010128 -107.046875 232.26742554 C-103.84281038 230.13138245 -103.05086753 230.02533646 -99.37890625 230.07211304 C-98.48623047 230.07855835 -97.59355469 230.08500366 -96.67382812 230.09164429 C-95.28067383 230.11678101 -95.28067383 230.11678101 -93.859375 230.14242554 C-92.91900391 230.15144897 -91.97863281 230.16047241 -91.00976562 230.16976929 C-88.68854532 230.19333498 -86.36783856 230.22623437 -84.046875 230.26742554 C-84.7584375 228.68961304 -84.7584375 228.68961304 -85.484375 227.07992554 C-91.09922182 213.82049038 -89.02773098 196.39182826 -84.046875 183.26742554 C-79.11098638 172.24746031 -79.11098638 172.24746031 -74.046875 169.26742554 C-72.891875 169.30867554 -71.736875 169.34992554 -70.546875 169.39242554 C-66.90340205 169.67170674 -66.90340205 169.67170674 -64.796875 166.89242554 C-64.219375 166.02617554 -63.641875 165.15992554 -63.046875 164.26742554 C-62.056875 163.60742554 -61.066875 162.94742554 -60.046875 162.26742554 C-59.8723684 160.2205195 -59.8723684 160.2205195 -60.171875 157.95492554 C-60.24841962 154.53228753 -60.22715564 153.5442851 -58.296875 150.57992554 C-45.75767913 141.6578054 -34.04526522 139.52951847 -19.046875 140.26742554 C-18.386875 140.59742554 -17.726875 140.92742554 -17.046875 141.26742554 C-17.25183594 140.44242554 -17.45679687 139.61742554 -17.66796875 138.76742554 C-17.93738281 137.61242554 -18.20679687 136.45742554 -18.484375 135.26742554 C-18.75121094 134.15367554 -19.01804687 133.03992554 -19.29296875 131.89242554 C-21.90941623 118.00702885 -21.2234262 103.30827 -21.25 89.24008179 C-21.25424107 87.70680142 -21.25424107 87.70680142 -21.25856781 86.1425457 C-21.27342673 80.75049467 -21.28274432 75.35846957 -21.28710938 69.96640015 C-21.29262666 64.42316049 -21.3167608 58.88016239 -21.34508133 53.33699894 C-21.36373456 49.04319049 -21.36891438 44.74944056 -21.37044525 40.45559502 C-21.3734577 38.41157118 -21.38143824 36.36754802 -21.39463043 34.32356453 C-21.4117749 31.46750495 -21.40979215 28.61204173 -21.40332031 25.75595093 C-21.4125351 24.92512497 -21.42174988 24.09429901 -21.4312439 23.23829651 C-21.38868646 17.21214809 -20.76383538 10.40599777 -16.66569901 5.67192173 C-11.22367148 0.97933831 -7.04415924 -0.02856365 0 0 Z M269.953125 73.26742554 C269.623125 91.08742554 269.293125 108.90742554 268.953125 127.26742554 C277.58866632 131.5851962 284.19739919 132.73334892 293.515625 129.70492554 C302.05366956 126.30164903 307.91902147 120.48262421 311.953125 112.26742554 C315.21570397 103.72257585 314.6267327 96.31480976 311.27734375 87.91195679 C307.10682825 79.5832282 300.36875132 74.73977668 292.078125 70.95492554 C283.63190397 69.09675691 278.35936905 70.46534419 269.953125 73.26742554 Z " fill="#030302" transform="translate(129.046875,197.73257446289063)"/>
<path d="M0 0 C85.47 0 170.94 0 259 0 C259 110.53703704 259 110.53703704 229 146 C228.1853125 146.96679688 227.370625 147.93359375 226.53125 148.9296875 C220.89583408 155.36761518 214.81052896 160.83305245 208 166 C207.21109375 166.60457031 206.4221875 167.20914063 205.609375 167.83203125 C198.53111038 173.0235399 190.84644259 177.10476253 183 181 C182.33310748 181.34398362 181.66621496 181.68796724 180.97911358 182.04237461 C175.45805936 184.72675242 171.0037717 185.57632213 164.90356445 185.50170898 C163.61394806 185.50981346 163.61394806 185.50981346 162.29827881 185.51808167 C159.4862514 185.53048238 156.67526505 185.51414034 153.86328125 185.49609375 C151.89511563 185.4962489 149.9269497 185.49774047 147.95878601 185.50050354 C143.84762963 185.5018835 139.73682384 185.48939357 135.62573242 185.46655273 C130.36329483 185.43811319 125.10143674 185.44092611 119.83895588 185.45364285 C115.78025888 185.46060407 111.72169532 185.45280658 107.66301537 185.44038582 C105.72259216 185.4358796 103.78215459 185.43552725 101.84173012 185.43945122 C99.13027266 185.44236922 96.41960895 185.42583038 93.70825195 185.40405273 C92.51349495 185.41080521 92.51349495 185.41080521 91.29460144 185.41769409 C86.4620084 185.35336809 83.24722488 184.55059393 79 182 C79.268125 181.21625 79.53625 180.4325 79.8125 179.625 C80.204375 178.42875 80.59625 177.2325 81 176 C81.26425781 175.28457031 81.52851563 174.56914062 81.80078125 173.83203125 C84.65362328 165.54391672 85.79345456 156.48333115 82.375 148.1875 C76.49545071 136.96290589 68.66021853 130.65504848 57 126 C55.7934375 125.443125 55.7934375 125.443125 54.5625 124.875 C41.87143278 120.54146485 28.13938293 121.44109016 15 123 C-5.91718304 84.4207575 0 44.92083022 0 0 Z " fill="#FDE5CB" transform="translate(124,244)"/>
<path d="M0 0 C4.29 0 8.58 0 13 0 C13.66 1.65 14.32 3.3 15 5 C18.25127226 7.44622227 21.54672491 7.27343578 25.51269531 7.31884766 C26.47917496 7.33391609 26.47917496 7.33391609 27.46517944 7.34928894 C29.58615256 7.38007823 31.7069997 7.39714378 33.828125 7.4140625 C35.30215536 7.43277762 36.77617505 7.4523513 38.25018311 7.4727478 C42.12330834 7.52403885 45.99646829 7.56368062 49.86975098 7.60089111 C53.82471281 7.64094983 57.77953058 7.69203363 61.734375 7.7421875 C69.48948444 7.8389109 77.24466367 7.92332699 85 8 C85 9.32 85 10.64 85 12 C57.9713109 17.45996204 30.9248362 22.76388561 3.7890625 27.66796875 C3.02494553 27.8062207 2.26082855 27.94447266 1.47355652 28.08691406 C-2.22785673 28.75633667 -5.9297044 29.42311988 -9.63256836 30.08447266 C-10.95948175 30.32319162 -12.28638652 30.56195856 -13.61328125 30.80078125 C-15.35798706 31.11269409 -15.35798706 31.11269409 -17.13793945 31.4309082 C-20.05553567 31.94898868 -20.05553567 31.94898868 -23 33 C-25.88352961 33.10482044 -28.74330622 33.15218853 -31.62724304 33.15390015 C-32.96551052 33.16047353 -32.96551052 33.16047353 -34.33081371 33.1671797 C-37.33341893 33.18057958 -40.33599478 33.18674961 -43.33862305 33.19287109 C-45.48729078 33.20077202 -47.63595719 33.20904097 -49.78462219 33.21765137 C-56.86030811 33.24390385 -63.93599999 33.25919648 -71.01171875 33.2734375 C-73.45265011 33.27879855 -75.89358143 33.28417607 -78.33451271 33.28956985 C-88.50250963 33.31121599 -98.67050495 33.32994493 -108.8385191 33.34119225 C-123.37058108 33.3573745 -137.90237322 33.39039252 -152.4343335 33.44759309 C-162.66907923 33.48648916 -172.90375345 33.5058489 -183.13857108 33.51111281 C-189.23939667 33.51474352 -195.33993468 33.52651724 -201.44067955 33.55921555 C-207.20030906 33.58963812 -212.95948228 33.59548805 -218.71917534 33.58383179 C-220.81350164 33.58361378 -222.90785122 33.59168693 -225.0021019 33.60948563 C-239.36166295 33.72470092 -252.51611802 31.89834904 -266.48594248 28.58220983 C-269.93117321 27.78435728 -273.38993259 27.12379252 -276.8671875 26.48046875 C-278.01888428 26.26680664 -279.17058105 26.05314453 -280.35717773 25.83300781 C-281.51805908 25.61999023 -282.67894043 25.40697266 -283.875 25.1875 C-286.57172241 24.68676894 -289.26833796 24.18548766 -291.96484375 23.68359375 C-292.6685762 23.55284454 -293.37230865 23.42209534 -294.09736633 23.28738403 C-302.94391056 21.6421349 -311.78448218 19.96538962 -320.62432861 18.28457642 C-322.48273765 17.93142991 -324.34125629 17.5788596 -326.19989014 17.22689819 C-328.81972037 16.73076085 -331.4391968 16.23279417 -334.05859375 15.734375 C-334.82925674 15.58875626 -335.59991974 15.44313751 -336.39393616 15.29310608 C-341.61969912 14.29571095 -346.81263364 13.18059316 -352 12 C-352 10.68 -352 9.36 -352 8 C-351.27188907 7.99826375 -350.54377814 7.9965275 -349.79360324 7.99473864 C-306.66320156 7.89176506 -263.53281535 7.78366437 -220.4024434 7.66888306 C-215.22654765 7.65511308 -210.05065179 7.64138604 -204.87475586 7.62768555 C-203.84430532 7.62495724 -202.81385477 7.62222894 -201.75217845 7.61941796 C-185.0557579 7.57531363 -168.35933059 7.53469008 -151.66289822 7.49534739 C-134.53752579 7.45491669 -117.41216592 7.41075819 -100.28681201 7.36312145 C-89.71509822 7.33383267 -79.14338537 7.30746988 -68.57165524 7.28482103 C-61.32740232 7.26902273 -54.08316477 7.24961148 -46.83892892 7.22733159 C-42.65613491 7.21457482 -38.47335271 7.20343738 -34.29054451 7.19658089 C-30.46297045 7.19027161 -26.63543715 7.17943692 -22.80788549 7.1649667 C-21.42153828 7.16053087 -20.0351845 7.15777153 -18.64883051 7.15683801 C-16.7669552 7.1553281 -14.88508872 7.14716721 -13.003232 7.1386652 C-11.43403774 7.13467814 -11.43403774 7.13467814 -9.83314258 7.13061053 C-7.11927648 7.00549876 -4.64288352 6.61113434 -2 6 C-1.34 4.02 -0.68 2.04 0 0 Z " fill="#FAE2C8" transform="translate(387,436)"/>
<path d="M0 0 C4.29 0 8.58 0 13 0 C13.99 2.475 13.99 2.475 15 5 C18.0824445 8.0824445 21.76982044 7.33846775 25.91015625 7.37890625 C26.79279648 7.39590073 27.67543671 7.4128952 28.58482361 7.43040466 C31.41064265 7.48364539 34.23644612 7.5238855 37.0625 7.5625 C39.89204926 7.60636341 42.72148178 7.6530117 45.55088806 7.70530701 C47.31362687 7.73737108 49.07646912 7.76422734 50.83937073 7.78553772 C56.88826809 7.88826809 56.88826809 7.88826809 58 9 C58 13.95 58 18.9 58 24 C-27.47 24 -112.94 24 -201 24 C-201 9 -201 9 -200 8 C-197.47755361 7.89651402 -194.98216222 7.85841155 -192.45901489 7.86196899 C-191.6599009 7.85914771 -190.86078691 7.85632643 -190.03745735 7.85341966 C-187.3389268 7.84503494 -184.64043707 7.84373212 -181.94189453 7.84228516 C-180.01560347 7.83761981 -178.08931351 7.83247672 -176.1630249 7.82688904 C-172.00453926 7.81558666 -167.84606089 7.80716288 -163.68756485 7.80076981 C-157.11686762 7.79011815 -150.54622241 7.76988147 -143.97555542 7.74765015 C-125.2876015 7.68562877 -106.59965033 7.63167972 -87.91162109 7.59863281 C-77.59838204 7.58031495 -67.28522971 7.55141487 -56.97205436 7.5106281 C-51.50968932 7.48951033 -46.04743381 7.47409411 -40.58502579 7.47182083 C-35.44848892 7.46968074 -30.31218008 7.45387704 -25.17571259 7.42743111 C-23.28706747 7.42021218 -21.3983948 7.41814961 -19.50973892 7.42153358 C-16.93787041 7.42540664 -14.36673805 7.41104467 -11.79495239 7.39199829 C-11.04174717 7.39752799 -10.28854195 7.40305768 -9.51251233 7.40875494 C-5.57391522 7.35980229 -5.57391522 7.35980229 -2.07531548 5.72550011 C-0.71873697 3.74553422 -0.71873697 3.74553422 0 0 Z " fill="#F1DAC1" transform="translate(325,205)"/>
<path d="M0 0 C0.556875 0.721875 1.11375 1.44375 1.6875 2.1875 C3.92641643 5.00328724 3.92641643 5.00328724 6.375 7.375 C15.38709677 16.38709677 15.38709677 16.38709677 17 23 C17.82757813 22.84144531 18.65515625 22.68289063 19.5078125 22.51953125 C35.07418265 20.20372898 51.06812113 22.50832929 65 30 C65.80695313 30.41894531 66.61390625 30.83789062 67.4453125 31.26953125 C78.3453681 37.31956211 86.42823311 46.10258785 91.08984375 57.71484375 C92.25317916 61.91383551 92.70396127 66.04727406 93.125 70.375 C93.21136719 71.20644531 93.29773438 72.03789062 93.38671875 72.89453125 C93.59718843 74.92907147 93.79943314 76.9644597 94 79 C104.83349233 81.37061665 115.14758318 82.53872103 126.25 82.4375 C126.96478516 82.43445862 127.67957031 82.43141724 128.41601562 82.42828369 C140.3016952 82.3538659 151.5565986 81.35405548 163 78 C163.70366699 77.80164551 164.40733398 77.60329102 165.13232422 77.39892578 C187.28119306 70.96761875 206.32168058 58.68347229 223 43 C223.59039062 42.4740625 224.18078125 41.948125 224.7890625 41.40625 C234.70105158 32.19890469 241.78002085 20.17023747 248.125 8.36328125 C249.60859199 5.70208812 251.0890638 3.35881187 253 1 C252.5005828 7.34259845 251.38707156 12.61726674 249 18.5 C248.69167236 19.27045654 248.38334473 20.04091309 248.06567383 20.8347168 C242.45141691 34.5087558 235.54929565 46.71178941 226 58 C225.1853125 58.96679688 224.370625 59.93359375 223.53125 60.9296875 C217.89583408 67.36761518 211.81052896 72.83305245 205 78 C204.21109375 78.60457031 203.4221875 79.20914063 202.609375 79.83203125 C195.53111038 85.0235399 187.84644259 89.10476253 180 93 C179.33310748 93.34398362 178.66621496 93.68796724 177.97911358 94.04237461 C172.45805936 96.72675242 168.0037717 97.57632213 161.90356445 97.50170898 C160.61394806 97.50981346 160.61394806 97.50981346 159.29827881 97.51808167 C156.4862514 97.53048238 153.67526505 97.51414034 150.86328125 97.49609375 C148.89511563 97.4962489 146.9269497 97.49774047 144.95878601 97.50050354 C140.84762963 97.5018835 136.73682384 97.48939357 132.62573242 97.46655273 C127.36329483 97.43811319 122.10143674 97.44092611 116.83895588 97.45364285 C112.78025888 97.46060407 108.72169532 97.45280658 104.66301537 97.44038582 C102.72259216 97.4358796 100.78215459 97.43552725 98.84173012 97.43945122 C96.13027266 97.44236922 93.41960895 97.42583038 90.70825195 97.40405273 C89.91174728 97.40855438 89.11524261 97.41305603 88.29460144 97.41769409 C83.4620084 97.35336809 80.24722488 96.55059393 76 94 C76.268125 93.21625 76.53625 92.4325 76.8125 91.625 C77.204375 90.42875 77.59625 89.2325 78 88 C78.26425781 87.28457031 78.52851563 86.56914062 78.80078125 85.83203125 C81.65362328 77.54391672 82.79345456 68.48333115 79.375 60.1875 C73.49545071 48.96290589 65.66021853 42.65504848 54 38 C53.195625 37.62875 52.39125 37.2575 51.5625 36.875 C38.87143278 32.54146485 25.13938293 33.44109016 12 35 C8.01796959 27.65562115 4.5595441 20.41764836 2.0625 12.4375 C1.85149658 11.77169922 1.64049316 11.10589844 1.4230957 10.41992188 C0.35790591 6.85874428 -0.23544304 3.71714616 0 0 Z " fill="#F7CA96" transform="translate(127,332)"/>
<path d="M0 0 C0.97839844 0.30679688 1.95679688 0.61359375 2.96484375 0.9296875 C20.04637964 6.81987229 32.90107527 18.2235717 41.26953125 34.234375 C48.63860378 49.49175009 49.34994164 68.00115097 44 83.98828125 C41.2642155 91.07072337 37.67214484 97.03620389 33 103 C32.45472656 103.71027344 31.90945313 104.42054688 31.34765625 105.15234375 C21.06600545 117.75643803 5.78946351 124.49185746 -10 127 C-20.40837966 127.88558693 -31.32645007 127.16329997 -41 123 C-39.75971762 116.82777121 -38.10396411 110.93317878 -36 105 C-34.87980469 105.32097656 -33.75960938 105.64195312 -32.60546875 105.97265625 C-20.19501351 109.05276264 -6.20858885 108.28504205 5 102 C16.17225342 94.87345653 23.54337914 84.83670213 27 72 C28.48220649 58.49664042 27.06819999 47.10604467 19.25 35.75 C11.58269575 26.38966156 3.37972045 21.79324015 -8 18 C-9.3374695 17.90880499 -10.67895805 17.86934698 -12.01953125 17.8671875 C-12.79490234 17.86589844 -13.57027344 17.86460937 -14.36914062 17.86328125 C-15.57860352 17.86908203 -15.57860352 17.86908203 -16.8125 17.875 C-17.60720703 17.87113281 -18.40191406 17.86726563 -19.22070312 17.86328125 C-19.99994141 17.86457031 -20.77917969 17.86585938 -21.58203125 17.8671875 C-22.28561768 17.86831543 -22.9892041 17.86944336 -23.71411133 17.87060547 C-26.49715769 18.028142 -29.25042543 18.54173757 -32 19 C-32 12.4 -32 5.8 -32 -1 C-21.89360072 -3.02127986 -9.85220862 -3.34869345 0 0 Z " fill="#FAE3C9" transform="translate(430,236)"/>
<path d="M0 0 C0.79921875 0.00902344 1.5984375 0.01804687 2.421875 0.02734375 C3.02515625 0.03894531 3.6284375 0.05054688 4.25 0.0625 C2.57936508 5.16246628 -0.43454974 9.24070935 -3.44921875 13.6171875 C-4.58748534 15.30017506 -5.72482724 16.98378833 -6.86132812 18.66796875 C-8.64990416 21.3096412 -10.44393145 23.946833 -12.25415039 26.57373047 C-14.00384259 29.11817471 -15.72816958 31.67831302 -17.44921875 34.2421875 C-17.99495041 35.02157684 -18.54068207 35.80096619 -19.10295105 36.60397339 C-21.63573884 40.41808601 -22.75850739 42.29816575 -22.70629883 46.98876953 C-21.98932734 50.1332532 -21.98932734 50.1332532 -19.75 52.0625 C-16.46618871 52.98257728 -16.46618871 52.98257728 -12.75 52.0625 C-4.7057284 44.39122802 1.0304012 32.94757004 7.08422852 23.66723633 C8.54630216 21.42913717 10.0167021 19.19670007 11.48828125 16.96484375 C11.93722244 16.27124252 12.38616364 15.5776413 12.84870911 14.86302185 C13.93047537 13.2272473 15.08361782 11.63905614 16.25 10.0625 C16.91 10.0625 17.57 10.0625 18.25 10.0625 C21.3348547 15.18204609 21.79561308 19.24858623 21.75 25.0625 C21.74500488 25.8982959 21.74000977 26.7340918 21.73486328 27.59521484 C21.2813479 43.94991782 12.75105302 56.93914987 1.25 68.0625 C-1.6395088 70.27642065 -4.62359343 72.20423425 -7.75 74.0625 C-8.74 74.7225 -9.73 75.3825 -10.75 76.0625 C-14.81451903 76.63247607 -18.90011671 76.61769495 -23 76.6875 C-24.12019531 76.74550781 -25.24039063 76.80351562 -26.39453125 76.86328125 C-34.47160035 76.98725043 -34.47160035 76.98725043 -38.03930664 74.40649414 C-44.41348779 67.37072463 -46.33798057 59.26211757 -46.03515625 49.9140625 C-45.1911817 41.47431701 -42.58289745 34.05427289 -38.73828125 26.53515625 C-37.64875272 23.80918171 -37.41050424 21.97035498 -37.75 19.0625 C-38.41 18.4025 -39.07 17.7425 -39.75 17.0625 C-39.64198689 13.93011967 -38.53165369 12.81464743 -36.4375 10.4375 C-34.20019121 8.4603434 -32.48131467 7.17525783 -29.75 6.0625 C-28.76 6.7225 -27.77 7.3825 -26.75 8.0625 C-22.12005981 7.75297754 -18.68707572 6.22339962 -14.625 4.0625 C-9.47227149 1.33535616 -5.82467073 -0.08565692 0 0 Z " fill="#DF760D" transform="translate(101.75,352.9375)"/>
<path d="M0 0 C8.65123623 2.17859598 15.77010867 11.59906876 20.12890625 18.84375 C23.91788433 25.80529895 26.47250555 32.58236728 27.140625 40.5390625 C27.22183594 41.31121094 27.30304688 42.08335938 27.38671875 42.87890625 C28.17728454 57.27678625 22.42250392 70.82920221 13.140625 81.5390625 C14.65041402 84.76791823 16.51028293 87.59672654 18.515625 90.5390625 C26.40521604 102.81723856 28.67776921 116.14824018 26.015625 130.3515625 C22.89809341 143.71241217 16.17320622 154.59088527 5.0546875 162.82421875 C1.43109919 164.95659846 -0.71756357 165.07596398 -4.859375 164.5390625 C-7.234375 163.4765625 -7.234375 163.4765625 -8.859375 161.5390625 C-9.984375 158.2890625 -9.984375 158.2890625 -9.859375 154.5390625 C-7.56954366 150.62553257 -4.31269111 147.89986512 -0.796875 145.1015625 C6.86587152 138.41703894 9.46256999 129.54469257 10.578125 119.6640625 C10.08886574 109.73617658 6.19171401 100.50201289 -0.859375 93.5390625 C-2.10567766 92.62946257 -3.37575049 91.75114291 -4.671875 90.9140625 C-7.859375 88.5390625 -7.859375 88.5390625 -9.421875 85.0390625 C-9.90733531 81.15538 -9.95627412 79.81022513 -7.859375 76.5390625 C-5.67273599 74.33669227 -3.42069069 72.29694662 -0.859375 70.5390625 C-0.199375 70.5390625 0.460625 70.5390625 1.140625 70.5390625 C1.40746094 70.00152344 1.67429687 69.46398437 1.94921875 68.91015625 C2.82509393 67.16702106 3.71521827 65.4310272 4.61328125 63.69921875 C5.13792969 62.67699219 5.66257812 61.65476563 6.203125 60.6015625 C6.73035156 59.58191406 7.25757813 58.56226563 7.80078125 57.51171875 C11.82124358 48.59168425 10.49397237 39.45157129 7.140625 30.5390625 C4.32140461 24.85409994 0.64972166 20.99175567 -4.171875 16.9140625 C-7.43040387 14.09295304 -8.72269908 12.91181501 -10.234375 8.7890625 C-9.50208859 2.4425803 -6.60630491 -0.46488812 0 0 Z " fill="#000000" transform="translate(278.859375,-0.5390625)"/>
<path d="M0 0 C67.32 0 134.64 0 204 0 C204 4.29 204 8.58 204 13 C136.68 13 69.36 13 0 13 C0 8.71 0 4.42 0 0 Z " fill="#FBCD98" transform="translate(152,484)"/>
<path d="M0 0 C2.85164897 2.0258819 4.25105673 3.78025416 5.625 7 C-6.38785999 10.30986418 -18.56229902 12.6467057 -30.80883789 14.89306641 C-32.12777243 15.13961898 -33.44670169 15.38619983 -34.765625 15.6328125 C-35.94157227 15.84824707 -37.11751953 16.06368164 -38.32910156 16.28564453 C-41.01203768 16.91487434 -43.05416216 17.5372813 -45.375 19 C-46.76050197 21.77100394 -46.5627467 23.9334706 -46.375 27 C-45.715 27.99 -45.055 28.98 -44.375 30 C-38.5984817 31.0740713 -32.36327163 29.65849511 -26.68359375 28.50390625 C-25.894048 28.35090561 -25.10450226 28.19790497 -24.29103088 28.04026794 C-21.79656857 27.55555352 -19.30451184 27.05964439 -16.8125 26.5625 C-14.31657052 26.07095446 -11.82019244 25.58185562 -9.32325745 25.09544373 C-7.77875122 24.79390756 -6.23486574 24.48916635 -4.6917572 24.18055725 C0.06711991 23.24319093 4.80592834 22.55378749 9.625 22 C7.20179936 30.49928582 2.97308197 36.94674907 -4.375 42 C-9.3105339 43.29258597 -14.07530357 43.17739851 -19.1328125 42.9765625 C-20.53094376 42.95786847 -21.92914136 42.94365407 -23.32736206 42.9336853 C-26.97549158 42.89583024 -30.61952259 42.79792105 -34.26605225 42.68664551 C-37.99972085 42.58361539 -41.7340641 42.53852306 -45.46875 42.48828125 C-52.77268509 42.38161709 -60.07326449 42.21138192 -67.375 42 C-65.94061792 39.02344546 -64.40585687 36.75681031 -62.25 34.25 C-53.29849707 22.81300669 -49.02933302 10.10987553 -46.375 -4 C-31.44796702 -9.11783988 -13.65897657 -8.63826127 0 0 Z " fill="#DC750D" transform="translate(184.375,387)"/>
<path d="M0 0 C8.64013684 1.82772126 15.22785744 8.7516568 20.25 15.6875 C27.96335297 28.82243367 31.08688944 42.63262591 28.03125 57.75 C24.36502729 71.53499738 16.61697095 83.19052905 4.25 90.6875 C0.4375 91.5 0.4375 91.5 -2.75 90.6875 C-5.75 88.6875 -5.75 88.6875 -7.75 85.6875 C-8.30726795 80.83130786 -8.30726795 80.83130786 -6.75 77.6875 C-4.40528539 75.52147182 -1.91523518 73.7056856 0.66796875 71.83203125 C7.10800723 66.48319445 11.16917196 57.77162627 12 49.5 C12.79152953 38.57982403 9.51402917 30.02660704 2.875 21.4375 C0.69331743 19.15192778 -0.88823686 17.92219892 -3.5 16.3125 C-6.31191037 14.40089427 -7.3453042 13.04911113 -8 9.6875 C-8.13465188 6.3019669 -7.73068934 5.65941177 -5.6875 2.6875 C-2.75 0.6875 -2.75 0.6875 0 0 Z " fill="#000000" transform="translate(219.75,73.3125)"/>
<path d="M0 0 C10.76767362 5.41486757 18.65054416 15.90773695 23 27 C27.26824776 40.70332176 27.07660577 55.36033533 20.5390625 68.33984375 C15.38507808 77.24812646 9.41118005 85.29440997 0 90 C-4.05263598 90.54035146 -5.53730231 90.34199395 -8.875 87.875 C-11 85 -11 85 -11.625 82 C-10.57270479 76.94898301 -7.05806459 74.78792044 -3.0625 71.8125 C3.50974776 66.44601346 7.53058011 57.63490373 8.37109375 49.3359375 C8.56147227 37.98041874 6.79365875 28.8127191 -1 20 C-2.52325121 18.72251705 -4.08602871 17.4904417 -5.6875 16.3125 C-9.89753567 13.20492866 -9.89753567 13.20492866 -11 11 C-11.54035146 6.94736402 -11.34199395 5.46269769 -8.875 2.125 C-5.43280258 -0.41923288 -4.18660382 -0.45078531 0 0 Z " fill="#000000" transform="translate(333,74)"/>
<path d="M0 0 C-2.42320064 8.49928582 -6.65191803 14.94674907 -14 20 C-18.9355339 21.29258597 -23.70030357 21.17739851 -28.7578125 20.9765625 C-30.15594376 20.95786847 -31.55414136 20.94365407 -32.95236206 20.9336853 C-36.60049158 20.89583024 -40.24452259 20.79792105 -43.89105225 20.68664551 C-47.62472085 20.58361539 -51.3590641 20.53852306 -55.09375 20.48828125 C-62.39768509 20.38161709 -69.69826449 20.21138192 -77 20 C-75.18137236 16.22449304 -73.30179651 12.67179856 -70 10 C-67.12608128 9.47271103 -64.98178815 9.30504989 -62.12109375 9.375 C-50.85779854 9.19445297 -40.10045895 7.10421099 -29.0625 5 C-27.05031238 4.62662109 -25.03794305 4.25422005 -23.02539062 3.8828125 C-19.38052186 3.20483544 -15.7357608 2.52649514 -12.09399414 1.83203125 C-11.01294151 1.62670776 -11.01294151 1.62670776 -9.91004944 1.41723633 C-3.04535119 -0.08230679 -3.04535119 -0.08230679 0 0 Z " fill="#A04C00" transform="translate(194,409)"/>
<path d="M0 0 C0.66 0 1.32 0 2 0 C5.0848547 5.11954609 5.54561308 9.18608623 5.5 15 C5.49500488 15.8357959 5.49000977 16.6715918 5.48486328 17.53271484 C5.0313479 33.88741782 -3.49894698 46.87664987 -15 58 C-17.8895088 60.21392065 -20.87359343 62.14173425 -24 64 C-24.99 64.66 -25.98 65.32 -27 66 C-31.06451903 66.56997607 -35.15011671 66.55519495 -39.25 66.625 C-40.37019531 66.68300781 -41.49039063 66.74101562 -42.64453125 66.80078125 C-50.75700647 66.92529386 -50.75700647 66.92529386 -54.35742188 64.24511719 C-59 59.07656722 -59 59.07656722 -59 56 C-57.98164062 56.01160156 -56.96328125 56.02320313 -55.9140625 56.03515625 C-52.10404968 56.06790317 -48.2957773 56.047701 -44.48583984 56.01220703 C-42.84294436 56.00413939 -41.19991395 56.01007504 -39.55712891 56.03076172 C-28.49796587 56.46987981 -28.49796587 56.46987981 -19.171875 51.36328125 C-17.43644721 49.21550594 -17.43644721 49.21550594 -16 47 C-15.54818359 46.40880371 -15.09636719 45.81760742 -14.63085938 45.20849609 C-9.34530628 38.11045609 -5.40188338 30.51938745 -3 22 C-2.66548828 20.88238281 -2.66548828 20.88238281 -2.32421875 19.7421875 C-0.88401579 14.27529463 -0.86374119 9.03986842 -1.02734375 3.40625 C-1 1 -1 1 0 0 Z " fill="#A34E00" transform="translate(118,363)"/>
<path d="M0 0 C0 5.94 0 11.88 0 18 C2.31 18 4.62 18 7 18 C7 18.33 7 18.66 7 19 C-1.91 19.99 -1.91 19.99 -11 21 C-11 14.4 -11 7.8 -11 1 C-6 0 -6 0 0 0 Z " fill="#ECC290" transform="translate(409,234)"/>
<path d="M0 0 C-2.22226071 3.44605813 -4.51003886 5.82170211 -8 8 C-14.02877952 9.00977576 -19.91268274 8.75794748 -26 8.5 C-27.64965313 8.45981988 -29.29940043 8.42332705 -30.94921875 8.390625 C-34.96849196 8.30298051 -38.9831995 8.16524812 -43 8 C-40.11478482 5.11478482 -36.73208583 4.95832944 -32.8515625 4.23828125 C-32.04262543 4.08336716 -31.23368835 3.92845306 -30.40023804 3.7688446 C-28.68780564 3.44317443 -26.9746119 3.12148627 -25.26074219 2.8034668 C-22.64012206 2.31531683 -20.02324341 1.80992464 -17.40625 1.30273438 C-15.7423851 0.98853513 -14.07832822 0.67535045 -12.4140625 0.36328125 C-11.63165192 0.21127762 -10.84924133 0.05927399 -10.04312134 -0.09733582 C-6.34746413 -0.77082922 -3.59289904 -1.08334793 0 0 Z " fill="#D5710D" transform="translate(190,411)"/>
<path d="M0 0 C3.3 0.99 6.6 1.98 10 3 C8.49829538 8.98551772 7.05773837 14.61255621 4 20 C-2.75 19.125 -2.75 19.125 -5 18 C-3.75738593 11.81616764 -2.07970959 5.955532 0 0 Z " fill="#F5C995" transform="translate(394,341)"/>
</svg>
